<mxfile host="Electron" modified="2024-11-16T04:09:15.793Z" agent="Mozilla/5.0 (Windows NT 10.0; Win64; x64) AppleWebKit/537.36 (KHTML, like Gecko) draw.io/24.6.4 Chrome/124.0.6367.207 Electron/30.0.6 Safari/537.36" etag="gzQi1zZ6mYQLa9z7gl6l" version="24.6.4" type="device">
  <diagram name="Страница — 1" id="LpqGIsHr3v2bBi2vsWKs">
    <mxGraphModel dx="2236" dy="3018" grid="1" gridSize="10" guides="1" tooltips="1" connect="1" arrows="1" fold="1" page="1" pageScale="1" pageWidth="827" pageHeight="1169" math="0" shadow="0">
      <root>
        <mxCell id="0" />
        <mxCell id="1" parent="0" />
        <mxCell id="lTAwm9kblSHWMMIPv-Ka-36" style="edgeStyle=orthogonalEdgeStyle;rounded=0;orthogonalLoop=1;jettySize=auto;html=1;exitX=0.5;exitY=0;exitDx=0;exitDy=0;entryX=0.75;entryY=0;entryDx=0;entryDy=0;endArrow=diamondThin;endFill=1;endSize=24;" edge="1" parent="1" source="lTAwm9kblSHWMMIPv-Ka-1" target="lTAwm9kblSHWMMIPv-Ka-26">
          <mxGeometry relative="1" as="geometry" />
        </mxCell>
        <mxCell id="lTAwm9kblSHWMMIPv-Ka-37" style="edgeStyle=orthogonalEdgeStyle;rounded=0;orthogonalLoop=1;jettySize=auto;html=1;exitX=0.25;exitY=0;exitDx=0;exitDy=0;entryX=0.5;entryY=0;entryDx=0;entryDy=0;endArrow=none;endFill=0;" edge="1" parent="1" source="lTAwm9kblSHWMMIPv-Ka-1" target="lTAwm9kblSHWMMIPv-Ka-18">
          <mxGeometry relative="1" as="geometry">
            <Array as="points">
              <mxPoint x="168" y="-250" />
              <mxPoint x="-365" y="-250" />
            </Array>
          </mxGeometry>
        </mxCell>
        <mxCell id="lTAwm9kblSHWMMIPv-Ka-1" value="&lt;span style=&quot;font-size:14.0pt;mso-bidi-font-size:&lt;br/&gt;12.0pt;line-height:107%;font-family:&amp;quot;Times New Roman&amp;quot;,serif;mso-fareast-font-family:&lt;br/&gt;Calibri;mso-fareast-theme-font:minor-latin;mso-ansi-language:EN-US;mso-fareast-language:&lt;br/&gt;EN-US;mso-bidi-language:AR-SA&quot; lang=&quot;EN-US&quot;&gt;Book&lt;/span&gt;" style="swimlane;fontStyle=1;align=center;verticalAlign=top;childLayout=stackLayout;horizontal=1;startSize=26;horizontalStack=0;resizeParent=1;resizeParentMax=0;resizeLast=0;collapsible=1;marginBottom=0;whiteSpace=wrap;html=1;" vertex="1" parent="1">
          <mxGeometry x="80" y="40" width="350" height="190" as="geometry" />
        </mxCell>
        <mxCell id="lTAwm9kblSHWMMIPv-Ka-2" value="&lt;font style=&quot;font-size: 16px;&quot;&gt;+ field:&amp;nbsp;&lt;span style=&quot;line-height: 107%; font-family: &amp;quot;Times New Roman&amp;quot;, serif;&quot; lang=&quot;EN-US&quot;&gt;Title&lt;/span&gt;&lt;/font&gt;" style="text;strokeColor=none;fillColor=none;align=left;verticalAlign=top;spacingLeft=4;spacingRight=4;overflow=hidden;rotatable=0;points=[[0,0.5],[1,0.5]];portConstraint=eastwest;whiteSpace=wrap;html=1;" vertex="1" parent="lTAwm9kblSHWMMIPv-Ka-1">
          <mxGeometry y="26" width="350" height="26" as="geometry" />
        </mxCell>
        <mxCell id="lTAwm9kblSHWMMIPv-Ka-7" value="&lt;span style=&quot;font-size: 16px;&quot;&gt;+ field:&amp;nbsp;&lt;/span&gt;&lt;span style=&quot;font-size:14.0pt;mso-bidi-font-size:&lt;br/&gt;12.0pt;line-height:107%;font-family:&amp;quot;Times New Roman&amp;quot;,serif;mso-fareast-font-family:&lt;br/&gt;Calibri;mso-fareast-theme-font:minor-latin;mso-ansi-language:EN-US;mso-fareast-language:&lt;br/&gt;EN-US;mso-bidi-language:AR-SA&quot; lang=&quot;EN-US&quot;&gt;Author&lt;/span&gt;" style="text;strokeColor=none;fillColor=none;align=left;verticalAlign=top;spacingLeft=4;spacingRight=4;overflow=hidden;rotatable=0;points=[[0,0.5],[1,0.5]];portConstraint=eastwest;whiteSpace=wrap;html=1;" vertex="1" parent="lTAwm9kblSHWMMIPv-Ka-1">
          <mxGeometry y="52" width="350" height="26" as="geometry" />
        </mxCell>
        <mxCell id="lTAwm9kblSHWMMIPv-Ka-6" value="&lt;span style=&quot;font-size: 16px;&quot;&gt;+ field:&amp;nbsp;&lt;/span&gt;&lt;span style=&quot;font-size:14.0pt;mso-bidi-font-size:&lt;br/&gt;12.0pt;line-height:107%;font-family:&amp;quot;Times New Roman&amp;quot;,serif;mso-fareast-font-family:&lt;br/&gt;Calibri;mso-fareast-theme-font:minor-latin;mso-ansi-language:EN-US;mso-fareast-language:&lt;br/&gt;EN-US;mso-bidi-language:AR-SA&quot; lang=&quot;EN-US&quot;&gt;ISBN&lt;/span&gt;" style="text;strokeColor=none;fillColor=none;align=left;verticalAlign=top;spacingLeft=4;spacingRight=4;overflow=hidden;rotatable=0;points=[[0,0.5],[1,0.5]];portConstraint=eastwest;whiteSpace=wrap;html=1;" vertex="1" parent="lTAwm9kblSHWMMIPv-Ka-1">
          <mxGeometry y="78" width="350" height="26" as="geometry" />
        </mxCell>
        <mxCell id="lTAwm9kblSHWMMIPv-Ka-5" value="&lt;span style=&quot;font-size: 16px;&quot;&gt;+ field:&amp;nbsp;&lt;/span&gt;&lt;span style=&quot;font-size:14.0pt;mso-bidi-font-size:&lt;br/&gt;12.0pt;line-height:107%;font-family:&amp;quot;Times New Roman&amp;quot;,serif;mso-fareast-font-family:&lt;br/&gt;Calibri;mso-fareast-theme-font:minor-latin;mso-ansi-language:EN-US;mso-fareast-language:&lt;br/&gt;EN-US;mso-bidi-language:AR-SA&quot; lang=&quot;EN-US&quot;&gt;IsAvailable&lt;/span&gt;" style="text;strokeColor=none;fillColor=none;align=left;verticalAlign=top;spacingLeft=4;spacingRight=4;overflow=hidden;rotatable=0;points=[[0,0.5],[1,0.5]];portConstraint=eastwest;whiteSpace=wrap;html=1;" vertex="1" parent="lTAwm9kblSHWMMIPv-Ka-1">
          <mxGeometry y="104" width="350" height="26" as="geometry" />
        </mxCell>
        <mxCell id="lTAwm9kblSHWMMIPv-Ka-3" value="" style="line;strokeWidth=1;fillColor=none;align=left;verticalAlign=middle;spacingTop=-1;spacingLeft=3;spacingRight=3;rotatable=0;labelPosition=right;points=[];portConstraint=eastwest;strokeColor=inherit;" vertex="1" parent="lTAwm9kblSHWMMIPv-Ka-1">
          <mxGeometry y="130" width="350" height="8" as="geometry" />
        </mxCell>
        <mxCell id="lTAwm9kblSHWMMIPv-Ka-4" value="&lt;font style=&quot;font-size: 16px;&quot;&gt;+ method(type):&amp;nbsp;&lt;span style=&quot;line-height: 107%; font-family: &amp;quot;Times New Roman&amp;quot;, serif;&quot; lang=&quot;EN-US&quot;&gt;MarkAsLoaned()&amp;nbsp;&lt;/span&gt;&lt;/font&gt;" style="text;strokeColor=none;fillColor=none;align=left;verticalAlign=top;spacingLeft=4;spacingRight=4;overflow=hidden;rotatable=0;points=[[0,0.5],[1,0.5]];portConstraint=eastwest;whiteSpace=wrap;html=1;" vertex="1" parent="lTAwm9kblSHWMMIPv-Ka-1">
          <mxGeometry y="138" width="350" height="26" as="geometry" />
        </mxCell>
        <mxCell id="lTAwm9kblSHWMMIPv-Ka-9" value="&lt;font style=&quot;font-size: 16px;&quot;&gt;+ method(type):&amp;nbsp;&lt;span style=&quot;line-height: 107%; font-family: &amp;quot;Times New Roman&amp;quot;, serif;&quot; lang=&quot;EN-US&quot;&gt;MarkAsAvailable()&lt;/span&gt;&lt;/font&gt;" style="text;strokeColor=none;fillColor=none;align=left;verticalAlign=top;spacingLeft=4;spacingRight=4;overflow=hidden;rotatable=0;points=[[0,0.5],[1,0.5]];portConstraint=eastwest;whiteSpace=wrap;html=1;" vertex="1" parent="lTAwm9kblSHWMMIPv-Ka-1">
          <mxGeometry y="164" width="350" height="26" as="geometry" />
        </mxCell>
        <mxCell id="lTAwm9kblSHWMMIPv-Ka-35" style="edgeStyle=orthogonalEdgeStyle;rounded=0;orthogonalLoop=1;jettySize=auto;html=1;exitX=0.5;exitY=0;exitDx=0;exitDy=0;entryX=0.5;entryY=0;entryDx=0;entryDy=0;endArrow=diamondThin;endFill=1;endSize=24;" edge="1" parent="1" source="lTAwm9kblSHWMMIPv-Ka-10" target="lTAwm9kblSHWMMIPv-Ka-26">
          <mxGeometry relative="1" as="geometry" />
        </mxCell>
        <mxCell id="lTAwm9kblSHWMMIPv-Ka-10" value="&lt;b&gt;&lt;span style=&quot;font-size:14.0pt;&lt;br/&gt;mso-bidi-font-size:12.0pt;line-height:107%;font-family:&amp;quot;Times New Roman&amp;quot;,serif;&lt;br/&gt;mso-fareast-font-family:Calibri;mso-fareast-theme-font:minor-latin;mso-ansi-language:&lt;br/&gt;EN-US;mso-fareast-language:EN-US;mso-bidi-language:AR-SA&quot; lang=&quot;EN-US&quot;&gt;Reader&lt;/span&gt;&lt;/b&gt;" style="swimlane;fontStyle=1;align=center;verticalAlign=top;childLayout=stackLayout;horizontal=1;startSize=26;horizontalStack=0;resizeParent=1;resizeParentMax=0;resizeLast=0;collapsible=1;marginBottom=0;whiteSpace=wrap;html=1;" vertex="1" parent="1">
          <mxGeometry x="60" y="460" width="350" height="164" as="geometry" />
        </mxCell>
        <mxCell id="lTAwm9kblSHWMMIPv-Ka-11" value="&lt;font style=&quot;font-size: 16px;&quot;&gt;+ field:&amp;nbsp;&lt;/font&gt;&lt;span style=&quot;font-size:14.0pt;mso-bidi-font-size:&lt;br/&gt;12.0pt;line-height:107%;font-family:&amp;quot;Times New Roman&amp;quot;,serif;mso-fareast-font-family:&lt;br/&gt;Calibri;mso-fareast-theme-font:minor-latin;mso-ansi-language:EN-US;mso-fareast-language:&lt;br/&gt;EN-US;mso-bidi-language:AR-SA&quot; lang=&quot;EN-US&quot;&gt;Id&lt;/span&gt;" style="text;strokeColor=none;fillColor=none;align=left;verticalAlign=top;spacingLeft=4;spacingRight=4;overflow=hidden;rotatable=0;points=[[0,0.5],[1,0.5]];portConstraint=eastwest;whiteSpace=wrap;html=1;" vertex="1" parent="lTAwm9kblSHWMMIPv-Ka-10">
          <mxGeometry y="26" width="350" height="26" as="geometry" />
        </mxCell>
        <mxCell id="lTAwm9kblSHWMMIPv-Ka-12" value="&lt;span style=&quot;font-size: 16px;&quot;&gt;+ field:&amp;nbsp;&lt;/span&gt;&lt;span style=&quot;font-size:14.0pt;mso-bidi-font-size:&lt;br/&gt;12.0pt;line-height:107%;font-family:&amp;quot;Times New Roman&amp;quot;,serif;mso-fareast-font-family:&lt;br/&gt;Calibri;mso-fareast-theme-font:minor-latin;mso-ansi-language:EN-US;mso-fareast-language:&lt;br/&gt;EN-US;mso-bidi-language:AR-SA&quot; lang=&quot;EN-US&quot;&gt;Name&lt;/span&gt;" style="text;strokeColor=none;fillColor=none;align=left;verticalAlign=top;spacingLeft=4;spacingRight=4;overflow=hidden;rotatable=0;points=[[0,0.5],[1,0.5]];portConstraint=eastwest;whiteSpace=wrap;html=1;" vertex="1" parent="lTAwm9kblSHWMMIPv-Ka-10">
          <mxGeometry y="52" width="350" height="26" as="geometry" />
        </mxCell>
        <mxCell id="lTAwm9kblSHWMMIPv-Ka-13" value="&lt;span style=&quot;font-size: 16px;&quot;&gt;+ field:&amp;nbsp;&lt;/span&gt;&lt;span style=&quot;font-size:14.0pt;mso-bidi-font-size:&lt;br/&gt;12.0pt;line-height:107%;font-family:&amp;quot;Times New Roman&amp;quot;,serif;mso-fareast-font-family:&lt;br/&gt;Calibri;mso-fareast-theme-font:minor-latin;mso-ansi-language:EN-US;mso-fareast-language:&lt;br/&gt;EN-US;mso-bidi-language:AR-SA&quot; lang=&quot;EN-US&quot;&gt;Email&lt;/span&gt;" style="text;strokeColor=none;fillColor=none;align=left;verticalAlign=top;spacingLeft=4;spacingRight=4;overflow=hidden;rotatable=0;points=[[0,0.5],[1,0.5]];portConstraint=eastwest;whiteSpace=wrap;html=1;" vertex="1" parent="lTAwm9kblSHWMMIPv-Ka-10">
          <mxGeometry y="78" width="350" height="26" as="geometry" />
        </mxCell>
        <mxCell id="lTAwm9kblSHWMMIPv-Ka-15" value="" style="line;strokeWidth=1;fillColor=none;align=left;verticalAlign=middle;spacingTop=-1;spacingLeft=3;spacingRight=3;rotatable=0;labelPosition=right;points=[];portConstraint=eastwest;strokeColor=inherit;" vertex="1" parent="lTAwm9kblSHWMMIPv-Ka-10">
          <mxGeometry y="104" width="350" height="8" as="geometry" />
        </mxCell>
        <mxCell id="lTAwm9kblSHWMMIPv-Ka-16" value="&lt;font style=&quot;font-size: 16px;&quot;&gt;&lt;font style=&quot;font-size: 16px;&quot;&gt;+ method(type):&lt;/font&gt;&lt;span style=&quot;line-height: 107%; font-family: &amp;quot;Times New Roman&amp;quot;, serif;&quot; lang=&quot;EN-US&quot;&gt;BorrowBook()&lt;/span&gt;&lt;/font&gt;" style="text;strokeColor=none;fillColor=none;align=left;verticalAlign=top;spacingLeft=4;spacingRight=4;overflow=hidden;rotatable=0;points=[[0,0.5],[1,0.5]];portConstraint=eastwest;whiteSpace=wrap;html=1;" vertex="1" parent="lTAwm9kblSHWMMIPv-Ka-10">
          <mxGeometry y="112" width="350" height="26" as="geometry" />
        </mxCell>
        <mxCell id="lTAwm9kblSHWMMIPv-Ka-17" value="&lt;font style=&quot;font-size: 16px;&quot;&gt;+ method(type):&amp;nbsp;&lt;span style=&quot;line-height: 107%; font-family: &amp;quot;Times New Roman&amp;quot;, serif;&quot; lang=&quot;EN-US&quot;&gt;&lt;span style=&quot;line-height: 107%;&quot; lang=&quot;EN-US&quot;&gt;ReturnBook&lt;/span&gt;()&lt;/span&gt;&lt;/font&gt;" style="text;strokeColor=none;fillColor=none;align=left;verticalAlign=top;spacingLeft=4;spacingRight=4;overflow=hidden;rotatable=0;points=[[0,0.5],[1,0.5]];portConstraint=eastwest;whiteSpace=wrap;html=1;" vertex="1" parent="lTAwm9kblSHWMMIPv-Ka-10">
          <mxGeometry y="138" width="350" height="26" as="geometry" />
        </mxCell>
        <mxCell id="lTAwm9kblSHWMMIPv-Ka-38" style="edgeStyle=orthogonalEdgeStyle;rounded=0;orthogonalLoop=1;jettySize=auto;html=1;exitX=0.5;exitY=0;exitDx=0;exitDy=0;entryX=0.25;entryY=0;entryDx=0;entryDy=0;" edge="1" parent="1" source="lTAwm9kblSHWMMIPv-Ka-18" target="lTAwm9kblSHWMMIPv-Ka-10">
          <mxGeometry relative="1" as="geometry">
            <Array as="points">
              <mxPoint x="-365" y="-220" />
              <mxPoint x="-130" y="-220" />
              <mxPoint x="-130" y="400" />
              <mxPoint x="148" y="400" />
            </Array>
          </mxGeometry>
        </mxCell>
        <mxCell id="lTAwm9kblSHWMMIPv-Ka-18" value="&lt;b&gt;&lt;span style=&quot;font-size:14.0pt;&lt;br/&gt;mso-bidi-font-size:12.0pt;line-height:107%;font-family:&amp;quot;Times New Roman&amp;quot;,serif;&lt;br/&gt;mso-fareast-font-family:Calibri;mso-fareast-theme-font:minor-latin;mso-ansi-language:&lt;br/&gt;EN-US;mso-fareast-language:EN-US;mso-bidi-language:AR-SA&quot; lang=&quot;EN-US&quot;&gt;Librarian&lt;/span&gt;&lt;/b&gt;" style="swimlane;fontStyle=1;align=center;verticalAlign=top;childLayout=stackLayout;horizontal=1;startSize=26;horizontalStack=0;resizeParent=1;resizeParentMax=0;resizeLast=0;collapsible=1;marginBottom=0;whiteSpace=wrap;html=1;" vertex="1" parent="1">
          <mxGeometry x="-540" y="-200" width="350" height="164" as="geometry" />
        </mxCell>
        <mxCell id="lTAwm9kblSHWMMIPv-Ka-19" value="&lt;font style=&quot;font-size: 16px;&quot;&gt;+ field:&amp;nbsp;&lt;/font&gt;&lt;span style=&quot;font-size:14.0pt;mso-bidi-font-size:&lt;br/&gt;12.0pt;line-height:107%;font-family:&amp;quot;Times New Roman&amp;quot;,serif;mso-fareast-font-family:&lt;br/&gt;Calibri;mso-fareast-theme-font:minor-latin;mso-ansi-language:EN-US;mso-fareast-language:&lt;br/&gt;EN-US;mso-bidi-language:AR-SA&quot; lang=&quot;EN-US&quot;&gt;Id&lt;/span&gt;" style="text;strokeColor=none;fillColor=none;align=left;verticalAlign=top;spacingLeft=4;spacingRight=4;overflow=hidden;rotatable=0;points=[[0,0.5],[1,0.5]];portConstraint=eastwest;whiteSpace=wrap;html=1;" vertex="1" parent="lTAwm9kblSHWMMIPv-Ka-18">
          <mxGeometry y="26" width="350" height="26" as="geometry" />
        </mxCell>
        <mxCell id="lTAwm9kblSHWMMIPv-Ka-20" value="&lt;span style=&quot;font-size: 16px;&quot;&gt;+ field:&amp;nbsp;&lt;/span&gt;&lt;span style=&quot;font-size:14.0pt;mso-bidi-font-size:&lt;br/&gt;12.0pt;line-height:107%;font-family:&amp;quot;Times New Roman&amp;quot;,serif;mso-fareast-font-family:&lt;br/&gt;Calibri;mso-fareast-theme-font:minor-latin;mso-ansi-language:EN-US;mso-fareast-language:&lt;br/&gt;EN-US;mso-bidi-language:AR-SA&quot; lang=&quot;EN-US&quot;&gt;Name&lt;/span&gt;" style="text;strokeColor=none;fillColor=none;align=left;verticalAlign=top;spacingLeft=4;spacingRight=4;overflow=hidden;rotatable=0;points=[[0,0.5],[1,0.5]];portConstraint=eastwest;whiteSpace=wrap;html=1;" vertex="1" parent="lTAwm9kblSHWMMIPv-Ka-18">
          <mxGeometry y="52" width="350" height="26" as="geometry" />
        </mxCell>
        <mxCell id="lTAwm9kblSHWMMIPv-Ka-21" value="&lt;span style=&quot;font-size: 16px;&quot;&gt;+ field:&amp;nbsp;&lt;/span&gt;&lt;span style=&quot;font-size:14.0pt;mso-bidi-font-size:&lt;br/&gt;12.0pt;line-height:107%;font-family:&amp;quot;Times New Roman&amp;quot;,serif;mso-fareast-font-family:&lt;br/&gt;Calibri;mso-fareast-theme-font:minor-latin;mso-ansi-language:EN-US;mso-fareast-language:&lt;br/&gt;EN-US;mso-bidi-language:AR-SA&quot; lang=&quot;EN-US&quot;&gt;Position&lt;/span&gt;" style="text;strokeColor=none;fillColor=none;align=left;verticalAlign=top;spacingLeft=4;spacingRight=4;overflow=hidden;rotatable=0;points=[[0,0.5],[1,0.5]];portConstraint=eastwest;whiteSpace=wrap;html=1;" vertex="1" parent="lTAwm9kblSHWMMIPv-Ka-18">
          <mxGeometry y="78" width="350" height="26" as="geometry" />
        </mxCell>
        <mxCell id="lTAwm9kblSHWMMIPv-Ka-23" value="" style="line;strokeWidth=1;fillColor=none;align=left;verticalAlign=middle;spacingTop=-1;spacingLeft=3;spacingRight=3;rotatable=0;labelPosition=right;points=[];portConstraint=eastwest;strokeColor=inherit;" vertex="1" parent="lTAwm9kblSHWMMIPv-Ka-18">
          <mxGeometry y="104" width="350" height="8" as="geometry" />
        </mxCell>
        <mxCell id="lTAwm9kblSHWMMIPv-Ka-24" value="&lt;font style=&quot;font-size: 16px;&quot;&gt;+ method(type):&amp;nbsp;&lt;/font&gt;&lt;span lang=&quot;EN-US&quot; style=&quot;font-size: 16px; line-height: 107%; font-family: &amp;quot;Times New Roman&amp;quot;, serif;&quot;&gt;AddBook()&lt;/span&gt;" style="text;strokeColor=none;fillColor=none;align=left;verticalAlign=top;spacingLeft=4;spacingRight=4;overflow=hidden;rotatable=0;points=[[0,0.5],[1,0.5]];portConstraint=eastwest;whiteSpace=wrap;html=1;fontSize=16;" vertex="1" parent="lTAwm9kblSHWMMIPv-Ka-18">
          <mxGeometry y="112" width="350" height="26" as="geometry" />
        </mxCell>
        <mxCell id="lTAwm9kblSHWMMIPv-Ka-25" value="&lt;font style=&quot;font-size: 16px;&quot;&gt;+ method(type):&amp;nbsp;&lt;span lang=&quot;EN-US&quot; style=&quot;line-height: 107%; font-family: &amp;quot;Times New Roman&amp;quot;, serif; font-size: 16px;&quot;&gt;&lt;span lang=&quot;EN-US&quot; style=&quot;font-size: 16px; line-height: 107%;&quot;&gt;RemoveBook()&lt;/span&gt;&lt;/span&gt;&lt;/font&gt;" style="text;strokeColor=none;fillColor=none;align=left;verticalAlign=top;spacingLeft=4;spacingRight=4;overflow=hidden;rotatable=0;points=[[0,0.5],[1,0.5]];portConstraint=eastwest;whiteSpace=wrap;html=1;fontSize=16;" vertex="1" parent="lTAwm9kblSHWMMIPv-Ka-18">
          <mxGeometry y="138" width="350" height="26" as="geometry" />
        </mxCell>
        <mxCell id="lTAwm9kblSHWMMIPv-Ka-26" value="&lt;b&gt;&lt;span style=&quot;font-size:14.0pt;&lt;br/&gt;mso-bidi-font-size:12.0pt;line-height:107%;font-family:&amp;quot;Times New Roman&amp;quot;,serif;&lt;br/&gt;mso-fareast-font-family:Calibri;mso-fareast-theme-font:minor-latin;mso-ansi-language:&lt;br/&gt;EN-US;mso-fareast-language:EN-US;mso-bidi-language:AR-SA&quot; lang=&quot;EN-US&quot;&gt;Loan&lt;/span&gt;&lt;/b&gt;" style="swimlane;fontStyle=1;align=center;verticalAlign=top;childLayout=stackLayout;horizontal=1;startSize=26;horizontalStack=0;resizeParent=1;resizeParentMax=0;resizeLast=0;collapsible=1;marginBottom=0;whiteSpace=wrap;html=1;" vertex="1" parent="1">
          <mxGeometry x="477" y="670" width="350" height="190" as="geometry" />
        </mxCell>
        <mxCell id="lTAwm9kblSHWMMIPv-Ka-27" value="&lt;font style=&quot;font-size: 16px;&quot;&gt;+ field:&amp;nbsp;&lt;/font&gt;&lt;span style=&quot;font-size:14.0pt;mso-bidi-font-size:&lt;br/&gt;12.0pt;line-height:107%;font-family:&amp;quot;Times New Roman&amp;quot;,serif;mso-fareast-font-family:&lt;br/&gt;Calibri;mso-fareast-theme-font:minor-latin;mso-ansi-language:EN-US;mso-fareast-language:&lt;br/&gt;EN-US;mso-bidi-language:AR-SA&quot; lang=&quot;EN-US&quot;&gt;Book&lt;/span&gt;" style="text;strokeColor=none;fillColor=none;align=left;verticalAlign=top;spacingLeft=4;spacingRight=4;overflow=hidden;rotatable=0;points=[[0,0.5],[1,0.5]];portConstraint=eastwest;whiteSpace=wrap;html=1;" vertex="1" parent="lTAwm9kblSHWMMIPv-Ka-26">
          <mxGeometry y="26" width="350" height="26" as="geometry" />
        </mxCell>
        <mxCell id="lTAwm9kblSHWMMIPv-Ka-28" value="&lt;span style=&quot;font-size: 16px;&quot;&gt;+ field:&amp;nbsp;&lt;/span&gt;&lt;span style=&quot;font-size:14.0pt;mso-bidi-font-size:&lt;br/&gt;12.0pt;line-height:107%;font-family:&amp;quot;Times New Roman&amp;quot;,serif;mso-fareast-font-family:&lt;br/&gt;Calibri;mso-fareast-theme-font:minor-latin;mso-ansi-language:EN-US;mso-fareast-language:&lt;br/&gt;EN-US;mso-bidi-language:AR-SA&quot; lang=&quot;EN-US&quot;&gt;Reader&lt;/span&gt;" style="text;strokeColor=none;fillColor=none;align=left;verticalAlign=top;spacingLeft=4;spacingRight=4;overflow=hidden;rotatable=0;points=[[0,0.5],[1,0.5]];portConstraint=eastwest;whiteSpace=wrap;html=1;" vertex="1" parent="lTAwm9kblSHWMMIPv-Ka-26">
          <mxGeometry y="52" width="350" height="26" as="geometry" />
        </mxCell>
        <mxCell id="lTAwm9kblSHWMMIPv-Ka-29" value="&lt;span style=&quot;font-size: 16px;&quot;&gt;+ field:&amp;nbsp;&lt;/span&gt;&lt;span style=&quot;font-size:14.0pt;mso-bidi-font-size:&lt;br/&gt;12.0pt;line-height:107%;font-family:&amp;quot;Times New Roman&amp;quot;,serif;mso-fareast-font-family:&lt;br/&gt;Calibri;mso-fareast-theme-font:minor-latin;mso-ansi-language:EN-US;mso-fareast-language:&lt;br/&gt;EN-US;mso-bidi-language:AR-SA&quot; lang=&quot;EN-US&quot;&gt;LoanDate&lt;/span&gt;" style="text;strokeColor=none;fillColor=none;align=left;verticalAlign=top;spacingLeft=4;spacingRight=4;overflow=hidden;rotatable=0;points=[[0,0.5],[1,0.5]];portConstraint=eastwest;whiteSpace=wrap;html=1;" vertex="1" parent="lTAwm9kblSHWMMIPv-Ka-26">
          <mxGeometry y="78" width="350" height="26" as="geometry" />
        </mxCell>
        <mxCell id="lTAwm9kblSHWMMIPv-Ka-30" value="&lt;span style=&quot;font-size: 16px;&quot;&gt;+ field:&amp;nbsp;&lt;/span&gt;&lt;span style=&quot;font-size:14.0pt;mso-bidi-font-size:&lt;br/&gt;12.0pt;line-height:107%;font-family:&amp;quot;Times New Roman&amp;quot;,serif;mso-fareast-font-family:&lt;br/&gt;Calibri;mso-fareast-theme-font:minor-latin;mso-ansi-language:EN-US;mso-fareast-language:&lt;br/&gt;EN-US;mso-bidi-language:AR-SA&quot; lang=&quot;EN-US&quot;&gt;ReturnDate&lt;/span&gt;" style="text;strokeColor=none;fillColor=none;align=left;verticalAlign=top;spacingLeft=4;spacingRight=4;overflow=hidden;rotatable=0;points=[[0,0.5],[1,0.5]];portConstraint=eastwest;whiteSpace=wrap;html=1;" vertex="1" parent="lTAwm9kblSHWMMIPv-Ka-26">
          <mxGeometry y="104" width="350" height="26" as="geometry" />
        </mxCell>
        <mxCell id="lTAwm9kblSHWMMIPv-Ka-31" value="" style="line;strokeWidth=1;fillColor=none;align=left;verticalAlign=middle;spacingTop=-1;spacingLeft=3;spacingRight=3;rotatable=0;labelPosition=right;points=[];portConstraint=eastwest;strokeColor=inherit;" vertex="1" parent="lTAwm9kblSHWMMIPv-Ka-26">
          <mxGeometry y="130" width="350" height="8" as="geometry" />
        </mxCell>
        <mxCell id="lTAwm9kblSHWMMIPv-Ka-32" value="&lt;font style=&quot;font-size: 16px;&quot;&gt;+ method(type):&amp;nbsp;&lt;span style=&quot;line-height: 107%; font-family: &amp;quot;Times New Roman&amp;quot;, serif;&quot; lang=&quot;EN-US&quot;&gt;&lt;span style=&quot;font-size: 14pt; line-height: 107%;&quot; lang=&quot;EN-US&quot;&gt;IssueLoan()&lt;/span&gt;&amp;nbsp;&lt;/span&gt;&lt;/font&gt;" style="text;strokeColor=none;fillColor=none;align=left;verticalAlign=top;spacingLeft=4;spacingRight=4;overflow=hidden;rotatable=0;points=[[0,0.5],[1,0.5]];portConstraint=eastwest;whiteSpace=wrap;html=1;" vertex="1" parent="lTAwm9kblSHWMMIPv-Ka-26">
          <mxGeometry y="138" width="350" height="26" as="geometry" />
        </mxCell>
        <mxCell id="lTAwm9kblSHWMMIPv-Ka-33" value="&lt;font style=&quot;font-size: 16px;&quot;&gt;+ method(type):&amp;nbsp;&lt;span style=&quot;line-height: 107%; font-family: &amp;quot;Times New Roman&amp;quot;, serif;&quot; lang=&quot;EN-US&quot;&gt;&lt;span style=&quot;font-size: 14pt; line-height: 107%;&quot; lang=&quot;EN-US&quot;&gt;CompleteLoan()&lt;/span&gt;&lt;/span&gt;&lt;/font&gt;" style="text;strokeColor=none;fillColor=none;align=left;verticalAlign=top;spacingLeft=4;spacingRight=4;overflow=hidden;rotatable=0;points=[[0,0.5],[1,0.5]];portConstraint=eastwest;whiteSpace=wrap;html=1;" vertex="1" parent="lTAwm9kblSHWMMIPv-Ka-26">
          <mxGeometry y="164" width="350" height="26" as="geometry" />
        </mxCell>
      </root>
    </mxGraphModel>
  </diagram>
</mxfile>
